# xmcd
#
# Track frame offsets:
#	151
#	11414
#	22865
#	34602
#	47233
#	58360
#	69845
#	81202
#	93201
#	105222
#	115777
#	127556
#	139357
#	150000
#	160856
#	171209
#
# Disc length: 2439 seconds
#
# Revision: 0
# Processed by: cddbd v1.5.2PL0 Copyright (c) Steve Scherf et al.
# Submitted via: audiograbber 1.83.01
#
DISCID=b1098510
DTITLE=Patsy Cline - The Best Of (Time Music)
DYEAR=1998
DGENRE=Country
TTITLE0=I Don't Wanna
TTITLE1=Let The Teardrops Fall
TTITLE2=I've Loved And Lost Again
TTITLE3=Fingerprints
TTITLE4=I Can't Forget
TTITLE5=Just Out Of Reach
TTITLE6=Hungry For Your Love
TTITLE7=If I Could Only Stay Asleep
TTITLE8=Today Tomorrow and Forever
TTITLE9=I Love You Honey
TTITLE10=Never No More
TTITLE11=Walking After Midnight
TTITLE12=Pick Me Up On Your Way Down
TTITLE13=Honky Tonk Merry Go Round
TTITLE14=Three Cigarettes In An Ashtray
TTITLE15=In Care Of The Blues
EXTD=
EXTT0=
EXTT1=
EXTT2=
EXTT3=
EXTT4=
EXTT5=
EXTT6=
EXTT7=
EXTT8=
EXTT9=
EXTT10=
EXTT11=
EXTT12=
EXTT13=
EXTT14=
EXTT15=
PLAYORDER=
